<svg width="48" height="48" viewBox="0 0 48 48" fill="none" xmlns="http://www.w3.org/2000/svg">
<circle cx="24" cy="24" r="24" fill="#E25B4F"/>
<path fill-rule="evenodd" clip-rule="evenodd" d="M33.9992 24.227C33.9992 23.518 33.9375 22.8362 33.8229 22.1816H24.6932V26.0497H29.9102C29.6855 27.2997 29.0025 28.3588 27.9759 29.0679V31.5769H31.1087C32.9417 29.836 33.9992 27.2724 33.9992 24.227Z" fill="white"/>
<path fill-rule="evenodd" clip-rule="evenodd" d="M24.6901 34.0002C27.3074 34.0002 29.5017 33.1048 31.1055 31.5775L27.9727 29.0685C27.1047 29.6685 25.9943 30.023 24.6901 30.023C22.1653 30.023 20.0283 28.264 19.266 25.9004H16.0275V28.4912C17.6225 31.7594 20.9007 34.0002 24.6901 34.0002Z" fill="white"/>
<path fill-rule="evenodd" clip-rule="evenodd" d="M19.2696 25.8996C19.0757 25.2996 18.9656 24.6587 18.9656 23.9996C18.9656 23.3405 19.0757 22.6996 19.2696 22.0996V19.5088H16.0311C15.3745 20.8588 15 22.386 15 23.9996C15 25.6132 15.3745 27.1404 16.0311 28.4904L19.2696 25.8996Z" fill="white"/>
<path fill-rule="evenodd" clip-rule="evenodd" d="M24.6901 17.9772C26.1133 17.9772 27.3911 18.4817 28.3957 19.4726L31.176 16.6045C29.4973 14.9909 27.303 14 24.6901 14C20.9007 14 17.6225 16.2409 16.0275 19.509L19.266 22.0998C20.0283 19.7362 22.1653 17.9772 24.6901 17.9772Z" fill="white"/>
</svg>
